<svg width="120" height="24" viewBox="0 0 120 24" fill="none" xmlns="http://www.w3.org/2000/svg">
<path d="M9.384 23.456H12.024V7.04H10.384L9.384 7.928C8.544 7.256 7.44 6.848 6.168 6.848C2.616 6.848 0 9.536 0 13.04C0 16.544 2.616 19.232 6.168 19.232C7.44 19.232 8.544 18.848 9.384 18.176V23.456ZM6.192 16.712C4.152 16.712 2.712 15.128 2.712 13.04C2.712 10.952 4.152 9.368 6.192 9.368C7.512 9.368 8.736 10.016 9.384 11V15.08C8.736 16.064 7.512 16.712 6.192 16.712Z" fill="black"/>
<path d="M20.8879 16.712C18.8239 16.712 17.3839 15.128 17.3839 13.04C17.3839 10.952 18.8239 9.368 20.8879 9.368C22.9279 9.368 24.3919 10.952 24.3919 13.04C24.3919 15.128 22.9279 16.712 20.8879 16.712ZM20.8879 19.232C24.4399 19.232 27.1039 16.544 27.1039 13.04C27.1039 9.536 24.4399 6.848 20.8879 6.848C17.3119 6.848 14.6719 9.536 14.6719 13.04C14.6719 16.544 17.3119 19.232 20.8879 19.232Z" fill="black"/>
<path d="M39.3996 19.04H41.0396V7.04H39.3996L38.3996 7.928C37.5596 7.256 36.4556 6.848 35.1836 6.848C31.6316 6.848 29.0156 9.536 29.0156 13.04C29.0156 16.544 31.6316 19.232 35.1836 19.232C36.4556 19.232 37.5596 18.848 38.3996 18.176L39.3996 19.04ZM35.2076 16.712C33.1676 16.712 31.7276 15.128 31.7276 13.04C31.7276 10.952 33.1676 9.368 35.2076 9.368C36.5276 9.368 37.7516 10.016 38.3996 11V15.08C37.7516 16.064 36.5276 16.712 35.2076 16.712Z" fill="black"/>
<path d="M44.4075 19.04H47.0475V2H44.4075V19.04Z" fill="black"/>
<path d="M53.6475 19.232C56.1915 19.232 57.9435 17.768 57.9435 15.656C57.9435 13.784 56.8155 12.728 54.7995 11.936L53.9355 11.624C52.8075 11.168 52.3995 10.784 52.3995 10.16C52.3995 9.56 53.0235 9.2 53.7195 9.2C54.4875 9.2 55.0635 9.536 55.4715 10.28L57.4155 8.936C56.5275 7.448 55.2075 6.848 53.6715 6.848C51.4395 6.848 49.8075 8.288 49.8075 10.232C49.8075 11.864 50.6955 13.136 52.7355 13.928L53.5755 14.264C54.6795 14.672 55.1835 15.08 55.1835 15.776C55.1835 16.424 54.5595 16.88 53.6475 16.88C52.4475 16.88 51.7755 16.328 51.1995 15.344L49.1835 16.784C50.1675 18.464 51.7515 19.232 53.6475 19.232Z" fill="black"/>
<rect opacity="0.4" x="74" width="46" height="24" rx="4" fill="#50D38D"/>
<path d="M84.6738 10.686C85.1685 9.93933 85.9431 9.566 86.9978 9.566C88.0431 9.566 88.8645 9.93 89.4618 10.658C90.0685 11.386 90.3718 12.2913 90.3718 13.374C90.3718 14.4567 90.0685 15.362 89.4618 16.09C88.8645 16.8087 88.0431 17.168 86.9978 17.168C85.8685 17.168 85.0518 16.7667 84.5478 15.964V17H83.0078V6.5H84.6738V10.686ZM84.6178 13.374C84.6178 14.046 84.7998 14.6013 85.1638 15.04C85.5371 15.4787 86.0365 15.698 86.6618 15.698C87.2778 15.698 87.7725 15.4787 88.1458 15.04C88.5191 14.592 88.7058 14.0367 88.7058 13.374C88.7058 12.6927 88.5191 12.1327 88.1458 11.694C87.7725 11.2553 87.2778 11.036 86.6618 11.036C86.0365 11.036 85.5371 11.2553 85.1638 11.694C84.7998 12.1327 84.6178 12.6927 84.6178 13.374Z" fill="#13AF5B"/>
<path d="M98.6002 13.85H93.0702C93.1355 14.4287 93.3455 14.8907 93.7002 15.236C94.0549 15.572 94.5215 15.74 95.1002 15.74C95.4829 15.74 95.8282 15.6467 96.1362 15.46C96.4442 15.2733 96.6635 15.0213 96.7942 14.704H98.4742C98.2502 15.4413 97.8302 16.0387 97.2142 16.496C96.6075 16.944 95.8889 17.168 95.0582 17.168C93.9755 17.168 93.0982 16.8087 92.4262 16.09C91.7635 15.3713 91.4322 14.4613 91.4322 13.36C91.4322 12.2867 91.7682 11.386 92.4402 10.658C93.1122 9.93 93.9802 9.566 95.0442 9.566C96.1082 9.566 96.9669 9.92533 97.6202 10.644C98.2829 11.3533 98.6142 12.2493 98.6142 13.332L98.6002 13.85ZM95.0442 10.924C94.5215 10.924 94.0875 11.078 93.7422 11.386C93.3969 11.694 93.1822 12.1047 93.0982 12.618H96.9622C96.8875 12.1047 96.6822 11.694 96.3462 11.386C96.0102 11.078 95.5762 10.924 95.0442 10.924Z" fill="#13AF5B"/>
<path d="M103.401 15.516V16.958C103.195 17.014 102.906 17.042 102.533 17.042C101.114 17.042 100.405 16.328 100.405 14.9V11.064H99.2987V9.734H100.405V7.844H102.071V9.734H103.429V11.064H102.071V14.732C102.071 15.3013 102.341 15.586 102.883 15.586L103.401 15.516Z" fill="#13AF5B"/>
<path d="M109.24 13.584L107.308 13.878C106.402 14.018 105.95 14.3633 105.95 14.914C105.95 15.5487 106.379 15.866 107.238 15.866C107.882 15.866 108.376 15.6933 108.722 15.348C109.067 15.0027 109.24 14.5687 109.24 14.046V13.584ZM106.902 17.168C106.043 17.168 105.404 16.9673 104.984 16.566C104.564 16.1647 104.354 15.6327 104.354 14.97C104.354 13.7007 105.282 12.9353 107.14 12.674L109.24 12.38V12.268C109.24 11.3813 108.722 10.938 107.686 10.938C106.78 10.938 106.267 11.2973 106.146 12.016H104.522C104.596 11.3067 104.89 10.7233 105.404 10.266C105.926 9.79933 106.701 9.566 107.728 9.566C108.764 9.566 109.543 9.804 110.066 10.28C110.598 10.756 110.864 11.4233 110.864 12.282V15.628C110.864 16.216 110.934 16.6733 111.074 17H109.492C109.482 17 109.468 16.9673 109.45 16.902C109.44 16.8273 109.426 16.7107 109.408 16.552C109.398 16.3933 109.394 16.2253 109.394 16.048C108.899 16.7947 108.068 17.168 106.902 17.168Z" fill="#13AF5B"/>
</svg>
